<mxfile host="65bd71144e">
    <diagram id="awTKcjxFaUV9_Hsqf3XX" name="Page-1">
        <mxGraphModel dx="1118" dy="790" grid="1" gridSize="10" guides="1" tooltips="1" connect="1" arrows="1" fold="1" page="1" pageScale="1" pageWidth="827" pageHeight="1169" math="0" shadow="0">
            <root>
                <mxCell id="0"/>
                <mxCell id="1" parent="0"/>
                <mxCell id="rA_mySbdPQxgZzPo7z1M-3" style="edgeStyle=orthogonalEdgeStyle;rounded=0;orthogonalLoop=1;jettySize=auto;html=1;entryX=0.5;entryY=0;entryDx=0;entryDy=0;" parent="1" source="rA_mySbdPQxgZzPo7z1M-1" target="rA_mySbdPQxgZzPo7z1M-2" edge="1">
                    <mxGeometry relative="1" as="geometry"/>
                </mxCell>
                <mxCell id="rA_mySbdPQxgZzPo7z1M-6" style="edgeStyle=orthogonalEdgeStyle;rounded=0;orthogonalLoop=1;jettySize=auto;html=1;entryX=0.5;entryY=0;entryDx=0;entryDy=0;" parent="1" source="rA_mySbdPQxgZzPo7z1M-1" target="rA_mySbdPQxgZzPo7z1M-4" edge="1">
                    <mxGeometry relative="1" as="geometry"/>
                </mxCell>
                <mxCell id="rA_mySbdPQxgZzPo7z1M-1" value="new" style="rounded=1;whiteSpace=wrap;html=1;" parent="1" vertex="1">
                    <mxGeometry x="354" y="40" width="120" height="60" as="geometry"/>
                </mxCell>
                <mxCell id="rA_mySbdPQxgZzPo7z1M-5" style="edgeStyle=orthogonalEdgeStyle;rounded=0;orthogonalLoop=1;jettySize=auto;html=1;" parent="1" source="rA_mySbdPQxgZzPo7z1M-2" target="rA_mySbdPQxgZzPo7z1M-4" edge="1">
                    <mxGeometry relative="1" as="geometry"/>
                </mxCell>
                <mxCell id="rA_mySbdPQxgZzPo7z1M-2" value="saved" style="rounded=1;whiteSpace=wrap;html=1;" parent="1" vertex="1">
                    <mxGeometry x="90" y="160" width="120" height="60" as="geometry"/>
                </mxCell>
                <mxCell id="rA_mySbdPQxgZzPo7z1M-9" style="edgeStyle=orthogonalEdgeStyle;rounded=0;orthogonalLoop=1;jettySize=auto;html=1;entryX=0.5;entryY=0;entryDx=0;entryDy=0;" parent="1" source="rA_mySbdPQxgZzPo7z1M-4" target="rA_mySbdPQxgZzPo7z1M-7" edge="1">
                    <mxGeometry relative="1" as="geometry"/>
                </mxCell>
                <mxCell id="rA_mySbdPQxgZzPo7z1M-4" value="pending_approval" style="rounded=1;whiteSpace=wrap;html=1;" parent="1" vertex="1">
                    <mxGeometry x="354" y="270" width="120" height="60" as="geometry"/>
                </mxCell>
                <mxCell id="rA_mySbdPQxgZzPo7z1M-11" style="edgeStyle=orthogonalEdgeStyle;rounded=0;orthogonalLoop=1;jettySize=auto;html=1;entryX=0.5;entryY=0;entryDx=0;entryDy=0;" parent="1" source="rA_mySbdPQxgZzPo7z1M-7" target="rA_mySbdPQxgZzPo7z1M-10" edge="1">
                    <mxGeometry relative="1" as="geometry"/>
                </mxCell>
                <mxCell id="rA_mySbdPQxgZzPo7z1M-13" style="edgeStyle=orthogonalEdgeStyle;rounded=0;orthogonalLoop=1;jettySize=auto;html=1;" parent="1" source="rA_mySbdPQxgZzPo7z1M-7" target="rA_mySbdPQxgZzPo7z1M-15" edge="1">
                    <mxGeometry relative="1" as="geometry">
                        <mxPoint x="700" y="340" as="targetPoint"/>
                    </mxGeometry>
                </mxCell>
                <mxCell id="rA_mySbdPQxgZzPo7z1M-7" value="at maker" style="ellipse;whiteSpace=wrap;html=1;" parent="1" vertex="1">
                    <mxGeometry x="354" y="390" width="120" height="80" as="geometry"/>
                </mxCell>
                <mxCell id="rA_mySbdPQxgZzPo7z1M-17" style="edgeStyle=orthogonalEdgeStyle;rounded=0;orthogonalLoop=1;jettySize=auto;html=1;entryX=0.5;entryY=0;entryDx=0;entryDy=0;" parent="1" source="rA_mySbdPQxgZzPo7z1M-10" target="rA_mySbdPQxgZzPo7z1M-16" edge="1">
                    <mxGeometry relative="1" as="geometry"/>
                </mxCell>
                <mxCell id="rA_mySbdPQxgZzPo7z1M-10" value="submitted_to_bank" style="ellipse;whiteSpace=wrap;html=1;" parent="1" vertex="1">
                    <mxGeometry x="347" y="530" width="134" height="80" as="geometry"/>
                </mxCell>
                <object label="" placeholders="1" id="rA_mySbdPQxgZzPo7z1M-14">
                    <mxCell style="edgeStyle=orthogonalEdgeStyle;rounded=0;orthogonalLoop=1;jettySize=auto;html=1;" parent="1" source="rA_mySbdPQxgZzPo7z1M-15" target="rA_mySbdPQxgZzPo7z1M-4" edge="1">
                        <mxGeometry relative="1" as="geometry">
                            <mxPoint x="630" y="300" as="sourcePoint"/>
                        </mxGeometry>
                    </mxCell>
                </object>
                <mxCell id="rA_mySbdPQxgZzPo7z1M-15" value="rejected_by_checker&lt;br&gt;(checker rejects and maker can submit it again any number of times)" style="rounded=1;whiteSpace=wrap;html=1;" parent="1" vertex="1">
                    <mxGeometry x="70" y="257.5" width="160" height="85" as="geometry"/>
                </mxCell>
                <mxCell id="rA_mySbdPQxgZzPo7z1M-19" value="" style="edgeStyle=orthogonalEdgeStyle;rounded=0;orthogonalLoop=1;jettySize=auto;html=1;" parent="1" source="rA_mySbdPQxgZzPo7z1M-16" target="rA_mySbdPQxgZzPo7z1M-18" edge="1">
                    <mxGeometry relative="1" as="geometry"/>
                </mxCell>
                <mxCell id="rA_mySbdPQxgZzPo7z1M-21" style="edgeStyle=orthogonalEdgeStyle;rounded=0;orthogonalLoop=1;jettySize=auto;html=1;" parent="1" source="rA_mySbdPQxgZzPo7z1M-16" target="rA_mySbdPQxgZzPo7z1M-20" edge="1">
                    <mxGeometry relative="1" as="geometry"/>
                </mxCell>
                <mxCell id="8iPuRaanS0iod83LBXcC-2" style="edgeStyle=none;html=1;entryX=0.5;entryY=1;entryDx=0;entryDy=0;rounded=0;" edge="1" parent="1" source="rA_mySbdPQxgZzPo7z1M-16" target="8iPuRaanS0iod83LBXcC-1">
                    <mxGeometry relative="1" as="geometry">
                        <mxPoint x="150" y="718" as="targetPoint"/>
                        <Array as="points">
                            <mxPoint x="150" y="718"/>
                        </Array>
                    </mxGeometry>
                </mxCell>
                <mxCell id="rA_mySbdPQxgZzPo7z1M-16" value="cheque reaches&amp;nbsp;&lt;br&gt;ICCS" style="whiteSpace=wrap;html=1;aspect=fixed;" parent="1" vertex="1">
                    <mxGeometry x="356" y="660" width="116" height="116" as="geometry"/>
                </mxCell>
                <mxCell id="rA_mySbdPQxgZzPo7z1M-18" value="paid" style="ellipse;whiteSpace=wrap;html=1;" parent="1" vertex="1">
                    <mxGeometry x="354" y="830" width="120" height="60" as="geometry"/>
                </mxCell>
                <mxCell id="rA_mySbdPQxgZzPo7z1M-22" style="edgeStyle=orthogonalEdgeStyle;rounded=0;orthogonalLoop=1;jettySize=auto;html=1;entryX=1;entryY=0.5;entryDx=0;entryDy=0;" parent="1" source="rA_mySbdPQxgZzPo7z1M-20" target="rA_mySbdPQxgZzPo7z1M-4" edge="1">
                    <mxGeometry relative="1" as="geometry"/>
                </mxCell>
                <mxCell id="rA_mySbdPQxgZzPo7z1M-27" style="edgeStyle=orthogonalEdgeStyle;rounded=0;orthogonalLoop=1;jettySize=auto;html=1;entryX=1;entryY=0.5;entryDx=0;entryDy=0;" parent="1" source="rA_mySbdPQxgZzPo7z1M-20" target="rA_mySbdPQxgZzPo7z1M-1" edge="1">
                    <mxGeometry relative="1" as="geometry">
                        <mxPoint x="520" y="55" as="targetPoint"/>
                        <Array as="points">
                            <mxPoint x="685" y="70"/>
                        </Array>
                    </mxGeometry>
                </mxCell>
                <mxCell id="rA_mySbdPQxgZzPo7z1M-20" value="bank_returned&lt;br&gt;( this acction can only be done depending on the resubmit threshold&amp;nbsp; )" style="rounded=1;whiteSpace=wrap;html=1;" parent="1" vertex="1">
                    <mxGeometry x="600" y="260" width="170" height="80" as="geometry"/>
                </mxCell>
                <mxCell id="rA_mySbdPQxgZzPo7z1M-23" value="Re-submit" style="text;html=1;strokeColor=none;fillColor=none;align=center;verticalAlign=middle;whiteSpace=wrap;rounded=0;" parent="1" vertex="1">
                    <mxGeometry x="510" y="270" width="70" height="30" as="geometry"/>
                </mxCell>
                <mxCell id="rA_mySbdPQxgZzPo7z1M-28" value="Re-scan" style="text;html=1;strokeColor=none;fillColor=none;align=center;verticalAlign=middle;whiteSpace=wrap;rounded=0;rotation=0;" parent="1" vertex="1">
                    <mxGeometry x="690" y="170" width="60" height="30" as="geometry"/>
                </mxCell>
                <mxCell id="8iPuRaanS0iod83LBXcC-5" style="edgeStyle=none;rounded=0;html=1;entryX=0;entryY=0.5;entryDx=0;entryDy=0;" edge="1" parent="1" source="8iPuRaanS0iod83LBXcC-1" target="rA_mySbdPQxgZzPo7z1M-4">
                    <mxGeometry relative="1" as="geometry">
                        <Array as="points">
                            <mxPoint x="150" y="480"/>
                            <mxPoint x="280" y="480"/>
                            <mxPoint x="280" y="300"/>
                        </Array>
                    </mxGeometry>
                </mxCell>
                <mxCell id="8iPuRaanS0iod83LBXcC-1" value="bank_rejected&lt;br&gt;(bank rejected cheques &lt;br&gt;can be submited any &lt;br&gt;number of times )" style="rounded=1;whiteSpace=wrap;html=1;" vertex="1" parent="1">
                    <mxGeometry x="70" y="530" width="160" height="90" as="geometry"/>
                </mxCell>
            </root>
        </mxGraphModel>
    </diagram>
    <diagram id="IPpUbXnbxSLoPscIQ0U4" name="Page-2">
        <mxGraphModel dx="1118" dy="790" grid="1" gridSize="10" guides="1" tooltips="1" connect="1" arrows="1" fold="1" page="1" pageScale="1" pageWidth="850" pageHeight="1100" math="0" shadow="0">
            <root>
                <mxCell id="wfh0Dg2VfORi76VOenaT-0"/>
                <mxCell id="wfh0Dg2VfORi76VOenaT-1" parent="wfh0Dg2VfORi76VOenaT-0"/>
                <mxCell id="ScqjLURCVzaIq1jWpinE-0" style="edgeStyle=orthogonalEdgeStyle;rounded=0;orthogonalLoop=1;jettySize=auto;html=1;entryX=0.5;entryY=0;entryDx=0;entryDy=0;" edge="1" parent="wfh0Dg2VfORi76VOenaT-1" source="ScqjLURCVzaIq1jWpinE-2" target="ScqjLURCVzaIq1jWpinE-4">
                    <mxGeometry relative="1" as="geometry"/>
                </mxCell>
                <mxCell id="ScqjLURCVzaIq1jWpinE-1" style="edgeStyle=orthogonalEdgeStyle;rounded=0;orthogonalLoop=1;jettySize=auto;html=1;entryX=0.5;entryY=0;entryDx=0;entryDy=0;" edge="1" parent="wfh0Dg2VfORi76VOenaT-1" source="ScqjLURCVzaIq1jWpinE-2" target="3JZBuLF2i-BWoR61zFvi-1">
                    <mxGeometry relative="1" as="geometry">
                        <mxPoint x="414" y="280" as="targetPoint"/>
                    </mxGeometry>
                </mxCell>
                <mxCell id="ScqjLURCVzaIq1jWpinE-2" value="new" style="rounded=1;whiteSpace=wrap;html=1;" vertex="1" parent="wfh0Dg2VfORi76VOenaT-1">
                    <mxGeometry x="354" y="90" width="120" height="60" as="geometry"/>
                </mxCell>
                <mxCell id="ScqjLURCVzaIq1jWpinE-3" style="edgeStyle=orthogonalEdgeStyle;rounded=0;orthogonalLoop=1;jettySize=auto;html=1;entryX=0.5;entryY=0;entryDx=0;entryDy=0;" edge="1" parent="wfh0Dg2VfORi76VOenaT-1" source="ScqjLURCVzaIq1jWpinE-4" target="3JZBuLF2i-BWoR61zFvi-1">
                    <mxGeometry relative="1" as="geometry">
                        <mxPoint x="400" y="310" as="targetPoint"/>
                    </mxGeometry>
                </mxCell>
                <mxCell id="ScqjLURCVzaIq1jWpinE-4" value="saved" style="rounded=1;whiteSpace=wrap;html=1;" vertex="1" parent="wfh0Dg2VfORi76VOenaT-1">
                    <mxGeometry x="180" y="200" width="120" height="60" as="geometry"/>
                </mxCell>
                <mxCell id="ScqjLURCVzaIq1jWpinE-10" style="edgeStyle=orthogonalEdgeStyle;rounded=0;orthogonalLoop=1;jettySize=auto;html=1;entryX=0.5;entryY=0;entryDx=0;entryDy=0;exitX=0.5;exitY=1;exitDx=0;exitDy=0;" edge="1" parent="wfh0Dg2VfORi76VOenaT-1" source="3JZBuLF2i-BWoR61zFvi-1" target="ScqjLURCVzaIq1jWpinE-16">
                    <mxGeometry relative="1" as="geometry">
                        <mxPoint x="414" y="410" as="sourcePoint"/>
                    </mxGeometry>
                </mxCell>
                <mxCell id="ScqjLURCVzaIq1jWpinE-14" value="" style="edgeStyle=orthogonalEdgeStyle;rounded=0;orthogonalLoop=1;jettySize=auto;html=1;" edge="1" parent="wfh0Dg2VfORi76VOenaT-1" source="ScqjLURCVzaIq1jWpinE-16" target="ScqjLURCVzaIq1jWpinE-17">
                    <mxGeometry relative="1" as="geometry">
                        <mxPoint x="414" y="610" as="targetPoint"/>
                    </mxGeometry>
                </mxCell>
                <mxCell id="ScqjLURCVzaIq1jWpinE-15" style="edgeStyle=orthogonalEdgeStyle;rounded=0;orthogonalLoop=1;jettySize=auto;html=1;" edge="1" parent="wfh0Dg2VfORi76VOenaT-1" source="ScqjLURCVzaIq1jWpinE-16" target="ScqjLURCVzaIq1jWpinE-20">
                    <mxGeometry relative="1" as="geometry"/>
                </mxCell>
                <mxCell id="ScqjLURCVzaIq1jWpinE-16" value="cheque reaches&amp;nbsp;&lt;br&gt;ICCS" style="whiteSpace=wrap;html=1;aspect=fixed;" vertex="1" parent="wfh0Dg2VfORi76VOenaT-1">
                    <mxGeometry x="356" y="400" width="116" height="116" as="geometry"/>
                </mxCell>
                <mxCell id="ScqjLURCVzaIq1jWpinE-17" value="paid" style="ellipse;whiteSpace=wrap;html=1;" vertex="1" parent="wfh0Dg2VfORi76VOenaT-1">
                    <mxGeometry x="354" y="570" width="120" height="60" as="geometry"/>
                </mxCell>
                <mxCell id="ScqjLURCVzaIq1jWpinE-18" style="edgeStyle=orthogonalEdgeStyle;rounded=0;orthogonalLoop=1;jettySize=auto;html=1;" edge="1" parent="wfh0Dg2VfORi76VOenaT-1" source="ScqjLURCVzaIq1jWpinE-20" target="3JZBuLF2i-BWoR61zFvi-1">
                    <mxGeometry relative="1" as="geometry">
                        <mxPoint x="481" y="320" as="targetPoint"/>
                    </mxGeometry>
                </mxCell>
                <mxCell id="ScqjLURCVzaIq1jWpinE-19" style="edgeStyle=orthogonalEdgeStyle;rounded=0;orthogonalLoop=1;jettySize=auto;html=1;entryX=1;entryY=0.5;entryDx=0;entryDy=0;exitX=0.5;exitY=0;exitDx=0;exitDy=0;" edge="1" parent="wfh0Dg2VfORi76VOenaT-1" source="ScqjLURCVzaIq1jWpinE-20" target="ScqjLURCVzaIq1jWpinE-2">
                    <mxGeometry relative="1" as="geometry">
                        <mxPoint x="520" y="55" as="targetPoint"/>
                        <Array as="points">
                            <mxPoint x="665" y="120"/>
                        </Array>
                    </mxGeometry>
                </mxCell>
                <mxCell id="ScqjLURCVzaIq1jWpinE-20" value="bank_returned&lt;br&gt;( this acction can only be done depending on the resubmit threshold&amp;nbsp; )" style="rounded=1;whiteSpace=wrap;html=1;" vertex="1" parent="wfh0Dg2VfORi76VOenaT-1">
                    <mxGeometry x="580" y="280" width="170" height="80" as="geometry"/>
                </mxCell>
                <mxCell id="ScqjLURCVzaIq1jWpinE-21" value="Re-submit" style="text;html=1;strokeColor=none;fillColor=none;align=center;verticalAlign=middle;whiteSpace=wrap;rounded=0;" vertex="1" parent="wfh0Dg2VfORi76VOenaT-1">
                    <mxGeometry x="500" y="290" width="70" height="30" as="geometry"/>
                </mxCell>
                <mxCell id="ScqjLURCVzaIq1jWpinE-22" value="Re-scan" style="text;html=1;strokeColor=none;fillColor=none;align=center;verticalAlign=middle;whiteSpace=wrap;rounded=0;rotation=0;" vertex="1" parent="wfh0Dg2VfORi76VOenaT-1">
                    <mxGeometry x="670" y="180" width="60" height="30" as="geometry"/>
                </mxCell>
                <mxCell id="3JZBuLF2i-BWoR61zFvi-1" value="&lt;span&gt;submitted_to_bank&lt;/span&gt;" style="rounded=1;whiteSpace=wrap;html=1;" vertex="1" parent="wfh0Dg2VfORi76VOenaT-1">
                    <mxGeometry x="354" y="290" width="120" height="60" as="geometry"/>
                </mxCell>
            </root>
        </mxGraphModel>
    </diagram>
</mxfile>